<?xml version="1.0" encoding="utf-8"?>
<!-- Generator: Adobe Illustrator 21.0.2, SVG Export Plug-In . SVG Version: 6.00 Build 0)  -->
<svg version="1.1" id="Calque_1" xmlns="http://www.w3.org/2000/svg" xmlns:xlink="http://www.w3.org/1999/xlink" x="0px" y="0px"
	 viewBox="0 0 30 30" style="enable-background:new 0 0 30 30;" xml:space="preserve">
<style type="text/css">
	.st0{clip-path:url(#SVGID_2_);}
	.st1{fill:#491A1A;stroke:#000000;stroke-width:0.2;stroke-miterlimit:10;}
	.st2{fill:none;stroke:#000000;stroke-width:0.2;stroke-miterlimit:10;}
</style>
<g>
	<defs>
		<circle id="SVGID_1_" cx="15" cy="15" r="15"/>
	</defs>
	<clipPath id="SVGID_2_">
		<use xlink:href="#SVGID_1_"  style="overflow:visible;"/>
	</clipPath>
	<g class="fpr">
	<animate
           xlink:href="#orange-circle"
           attributeName="cx"
           from="50"
           to="300"
           dur="1s"
           begin="click"
           fill="freeze" />
		<rect x="-50" class="st1" width="300" height="30"/>
		<path class="st2" d="M-49.5,1.5c0,14.9,15.2,27,34,27"/>
		<path class="st2" d="M-15.5,27.5c0-13.3,16.5-24,37-24"/>
		<path class="st2" d="M51.5,24.5c0-7.2-21-13-47-13"/>
		<path class="st2" d="M10.5,22.5c0-5.5,38-10,85-10"/>
		<path class="st2" d="M57.5,3.5c0,11.6,42.9,21,96,21"/>
		<path class="st2" d="M94.5,27.5c0-9.9,35.8-18,80-18"/>
		<path class="st2" d="M142.5,6.5c0,11.1,30.4,20,68,20"/>
		<path class="st2" d="M172.5,26.5c0-9.4,26.8-17,60-17"/>
		<path class="st2" d="M192.5,6.5c0,7.7,25,14,56,14"/>
		<path class="st2" d="M-13.5,14.5c-2.2,9.4-11.6,15.2-21,13c-7.5-1.8-12.2-9.3-10.4-16.8c1.4-6,7.4-9.7,13.4-8.3
			c4.8,1.1,7.8,5.9,6.7,10.8c-0.9,3.8-4.8,6.2-8.6,5.3c-3.1-0.7-5-3.8-4.3-6.9c0.6-2.5,3-4,5.5-3.4c2,0.5,3.2,2.4,2.7,4.4
			c-0.4,1.6-1.9,2.6-3.5,2.2c-1.3-0.3-2-1.6-1.7-2.8"/>
		<path class="st2" d="M9.5,28.5c-2.2-7.2,1.8-14.8,9-17c5.7-1.8,11.8,1.5,13.6,7.2c1.4,4.6-1.2,9.5-5.8,10.9
			c-3.7,1.1-7.6-0.9-8.7-4.6c-0.9-2.9,0.7-6.1,3.7-7c2.4-0.7,4.8,0.6,5.6,2.9c0.6,1.9-0.5,3.9-2.4,4.5C23,25.9,21.4,25,21,23.5
			c-0.4-1.2,0.3-2.5,1.5-2.9c1-0.3,2,0.2,2.3,1.2"/>
		<path class="st2" d="M52.5,3.5c1.1,4.4-1.6,8.9-6,10c-3.5,0.9-7.1-1.3-8-4.8c-0.7-2.8,1-5.7,3.8-6.4c2.3-0.6,4.6,0.8,5.1,3.1
			C47.9,7.2,46.8,9,45,9.5c-1.4,0.4-2.9-0.5-3.3-2c-0.3-1.2,0.4-2.3,1.6-2.6c0.9-0.2,1.9,0.3,2.1,1.3c0.2,0.7-0.3,1.5-1,1.7"/>
		<path class="st2" d="M110.5,9.5c2.8,7.7-1.3,16.2-9,19c-6.2,2.2-13-1-15.2-7.2c-1.8-4.9,0.8-10.4,5.8-12.2c4-1.4,8.3,0.6,9.7,4.6
			c1.1,3.2-0.5,6.7-3.7,7.8c-2.5,0.9-5.3-0.4-6.2-2.9c-0.7-2,0.3-4.3,2.4-5c1.6-0.6,3.4,0.3,4,1.9c0.5,1.3-0.2,2.7-1.5,3.2
			c-1,0.4-2.2-0.2-2.6-1.2"/>
		<path class="st2" d="M128.5,11.5c3.9-7.2,12.8-9.9,20-6c5.7,3.1,7.9,10.3,4.8,16c-2.5,4.6-8.2,6.3-12.8,3.8
			c-3.7-2-5.1-6.6-3.1-10.2c1.6-2.9,5.3-4,8.2-2.5c2.4,1.3,3.2,4.2,2,6.6c-1,1.9-3.4,2.6-5.2,1.6c-1.5-0.8-2.1-2.7-1.3-4.2
			c0.6-1.2,2.2-1.7,3.4-1c1,0.5,1.3,1.7,0.8,2.7"/>
		<path class="st2" d="M187.5,15.5c2.8-9.4,12.6-14.8,22-12c7.5,2.2,11.8,10.1,9.6,17.6c-1.8,6-8.1,9.4-14.1,7.7
			c-4.8-1.4-7.6-6.5-6.1-11.3c1.1-3.8,5.2-6,9-4.9c3.1,0.9,4.8,4.1,3.9,7.2c-0.7,2.5-3.3,3.9-5.8,3.1c-2-0.6-3.1-2.6-2.5-4.6
			c0.5-1.6,2.1-2.5,3.7-2c1.3,0.4,2,1.7,1.6,3"/>
	</g>
</g>
</svg>
